# xmcd
#
# Track frame offsets:
#	183
#	14140
#	28118
#	41738
#	57133
#	70175
#	84983
#	97600
#	118508
#	131855
#	145610
#	158995
#	172418
#	187390
#	203705
#	217820
#
# Disc length: 3097
#
# Revision: 1
# Processed by: cddbd v1.5.1PL0 Copyright (c) Steve Scherf et al.
# Submitted via: EasyCDDAExtractor 4.5.0.2
# Normalized: r0:TDELIM( - )
#
DISCID=e70c1710
DTITLE=x - Die Superhits der Volksmusik
DYEAR=1991
DGENRE=Volksmusik und Schlager
TTITLE0=Die Wildecker Herzbuben - Zwei Kerle wie wir
TTITLE1=Patrick Lindner - Die Stimme des Herzens
TTITLE2=Stefanie Hertel - Die Stimme des Herzens
TTITLE3=Kastelruther Spatzen - Spreng die Ketten deiner Einsamkeit
TTITLE4=Alexandra and Andy Borg - Solang' ma d' Sonn net kaufen kann
TTITLE5=Orig. Kristall Quintett - Willst du tanzen mit mir
TTITLE6=Christian Ebner - Die Grossen und die Kleinen
TTITLE7=Gunther Emmerlich - Nimm dir Zeit
TTITLE8=Teddy Parker - Jeder Tag ist ein Geschenk
TTITLE9=Alex and Micha - herrgott
TTITLE10=Rieserferner Buam - Ziach ma di Schuach aus
TTITLE11=Steffi and Bert - Mitten ins Herz
TTITLE12=Gedewind - Rendezvous an't Meer
TTITLE13=Thurland Echo - Hab ich meine Liebe verloren?
TTITLE14=Bernadette - Herzipopperl
TTITLE15=Pössnecker Musikanten - Lieder der Berge
EXTD=CD von I.B.\n
EXTT0=
EXTT1=
EXTT2=
EXTT3=
EXTT4=
EXTT5=
EXTT6=
EXTT7=
EXTT8=
EXTT9=
EXTT10=
EXTT11=
EXTT12=
EXTT13=
EXTT14=
EXTT15=
PLAYORDER=
